HIERARCHY
ROOT joint_Root
{
	OFFSET 0.0 0.0 0.0
	CHANNELS 6 Xposition Yposition Zposition Zrotation Xrotation Yrotation 
	JOINT Hips
	{
		OFFSET -17.1583 93.1646 452.98
		CHANNELS 6 Xposition Yposition Zposition Zrotation Xrotation Yrotation 
		JOINT Spine
		{
			OFFSET 15.7357 0.0 0.0
			CHANNELS 6 Xposition Yposition Zposition Zrotation Xrotation Yrotation 
			JOINT Chest
			{
				OFFSET 8.98455 -0.406207 0.0
				CHANNELS 6 Xposition Yposition Zposition Zrotation Xrotation Yrotation 
				JOINT Neck
				{
					OFFSET 16.3773 0.0 0.0
					CHANNELS 6 Xposition Yposition Zposition Zrotation Xrotation Yrotation 
					JOINT Head
					{
						OFFSET 6.45672 0.0 0.0
						CHANNELS 6 Xposition Yposition Zposition Zrotation Xrotation Yrotation 
						End Site
						{
							OFFSET 0.0 0.0 0.0
						}
					}
				}
				JOINT Shoulder_L
				{
					OFFSET 12.9942 -0.242716 4.98039
					CHANNELS 6 Xposition Yposition Zposition Zrotation Xrotation Yrotation 
					JOINT UpperArm_L
					{
						OFFSET 5.34809 0.0 0.0
						CHANNELS 6 Xposition Yposition Zposition Zrotation Xrotation Yrotation 
						JOINT LowerArm_L
						{
							OFFSET 24.3286 1.87007e-05 0.0
							CHANNELS 6 Xposition Yposition Zposition Zrotation Xrotation Yrotation 
							JOINT Hand_L
							{
								OFFSET 22.2916 0.0 0.0
								CHANNELS 6 Xposition Yposition Zposition Zrotation Xrotation Yrotation 
								End Site
								{
									OFFSET 0.0 0.0 0.0
								}
							}
						}
					}
				}
				JOINT Shoulder_R
				{
					OFFSET 12.9945 -0.242716 -4.98039
					CHANNELS 6 Xposition Yposition Zposition Zrotation Xrotation Yrotation 
					JOINT UpperArm_R
					{
						OFFSET -5.34813 0.0 0.0
						CHANNELS 6 Xposition Yposition Zposition Zrotation Xrotation Yrotation 
						JOINT LowerArm_R
						{
							OFFSET -24.3289 0.000322201 0.0
							CHANNELS 6 Xposition Yposition Zposition Zrotation Xrotation Yrotation 
							JOINT Hand_R
							{
								OFFSET -22.2915 -0.000108084 0.0
								CHANNELS 6 Xposition Yposition Zposition Zrotation Xrotation Yrotation 
								End Site
								{
									OFFSET 0.0 0.0 0.0
								}
							}
						}
					}
				}
			}
		}
		JOINT UpperLeg_L
		{
			OFFSET -2.19248 -6.46944 0.0
			CHANNELS 6 Xposition Yposition Zposition Zrotation Xrotation Yrotation 
			JOINT LowerLeg_L
			{
				OFFSET 39.0811 0.0 -1.23785e-05
				CHANNELS 6 Xposition Yposition Zposition Zrotation Xrotation Yrotation 
				JOINT Foot_L
				{
					OFFSET 40.9854 0.0 -1.26872e-05
					CHANNELS 6 Xposition Yposition Zposition Zrotation Xrotation Yrotation 
					JOINT Toes_L
					{
						OFFSET 11.7543 0.0 0.0
						CHANNELS 6 Xposition Yposition Zposition Zrotation Xrotation Yrotation 
						End Site
						{
							OFFSET 0.0 0.0 0.0
						}
					}
				}
			}
		}
		JOINT UpperLeg_R
		{
			OFFSET -2.19251 6.46944 0.0
			CHANNELS 6 Xposition Yposition Zposition Zrotation Xrotation Yrotation 
			JOINT LowerLeg_R
			{
				OFFSET -39.0811 -0.00228153 -0.0401928
				CHANNELS 6 Xposition Yposition Zposition Zrotation Xrotation Yrotation 
				JOINT Foot_R
				{
					OFFSET -40.9854 0.0 0.0
					CHANNELS 6 Xposition Yposition Zposition Zrotation Xrotation Yrotation 
					JOINT Toes_R
					{
						OFFSET -11.7543 0.0 0.0
						CHANNELS 6 Xposition Yposition Zposition Zrotation Xrotation Yrotation 
						End Site
						{
							OFFSET 0.0 0.0 0.0
						}
					}
				}
			}
		}
	}
}
MOTION
Frames:	9
Frame Time:	0.0333333
0.000000 0.000000 0.000000 0.000000 0.000000 -0.000000 -4.250620 92.932500 2.841820 86.363400 2.776100 0.303907 15.735700 0.000005 -0.000001 86.126400 87.034200 -93.699500 8.984550 -0.406207 -0.000000 -1.787740 0.228529 -15.139400 16.377300 -0.000001 -0.000001 0.999499 0.466158 -14.010100 6.456720 -0.000001 -0.000000 -1.056220 0.997755 -14.101600 12.994200 -0.242716 4.980390 -92.837200 9.165010 -72.716800 5.348090 -0.000007 -0.000001 -55.671700 -9.149070 1.453280 24.328600 0.000019 0.000005 10.698200 23.129200 -25.685100 22.291600 -0.000001 0.000005 4.879000 4.883000 9.715400 12.994500 -0.242716 -4.980390 94.404200 -7.991680 -61.014500 -5.348130 -0.000001 -0.000004 -22.275600 -52.537300 -50.373800 -24.328900 0.000322 -0.000009 -0.001036 -3.006090 -0.000023 -22.291500 -0.000108 -0.000004 58.443300 5.491760 -6.205310 -2.192480 -6.469440 -0.000000 -168.849000 -1.978730 1.624790 39.081100 -0.000007 -0.000012 -0.004461 0.021184 11.890100 40.985400 -0.000006 -0.000013 -4.646400 12.366800 -68.692900 11.754300 -0.000000 0.000003 -0.001925 0.195409 -8.648980 -2.192510 6.469440 -0.000001 -179.720000 11.813400 -175.972000 -39.081100 -0.002282 -0.040193 -0.010731 0.089202 8.964210 -40.985400 0.000008 0.000006 -7.611770 9.638250 -66.141000 -11.754300 -0.000006 -0.000006 -0.008393 0.258878 -6.058970
0.000000 0.000000 0.000000 0.000000 0.000000 -0.000000 -4.217730 92.939500 2.819930 86.375500 2.758800 0.300230 15.735700 0.000005 -0.000001 85.754000 87.033900 -93.296000 8.984550 -0.406207 -0.000000 -1.792930 0.187787 -15.077700 16.377300 -0.000001 -0.000001 1.072350 0.423637 -13.916400 6.456720 -0.000001 -0.000000 -1.056120 0.977218 -14.075600 12.994200 -0.242716 4.980390 -92.828400 9.125030 -72.696600 5.348090 -0.000007 -0.000001 -55.848400 -9.113010 1.443020 24.328600 0.000019 0.000005 10.683500 23.163100 -25.622700 22.291600 -0.000001 0.000005 4.792650 4.882770 9.719830 12.994500 -0.242716 -4.980390 94.366000 -7.933340 -61.049600 -5.348130 -0.000001 -0.000004 -22.365200 -52.735400 -50.305400 -24.328900 0.000322 -0.000009 -0.001044 -3.481920 -0.000026 -22.291500 -0.000108 -0.000004 58.186800 5.480760 -5.777410 -2.192480 -6.469440 -0.000000 -168.888000 -2.020810 1.632870 39.081100 -0.000007 -0.000012 -0.004455 0.021205 11.863500 40.985400 -0.000006 -0.000013 -4.626130 12.385800 -68.668300 11.754300 -0.000000 0.000003 -0.001875 0.194765 -8.675130 -2.192510 6.469440 -0.000001 -179.736000 11.608700 -175.992000 -39.081100 -0.002282 -0.040193 -0.010584 0.088397 8.951680 -40.985400 0.000008 0.000006 -7.779330 9.472640 -66.128000 -11.754300 -0.000006 -0.000006 -0.008657 0.260980 -5.973100
0.000000 0.000000 0.000000 0.000000 0.000000 -0.000000 -4.181020 92.931500 2.815350 86.363200 2.724660 0.389160 15.735700 0.000005 -0.000001 85.417000 87.019200 -92.919000 8.984550 -0.406207 -0.000000 -1.769660 0.145846 -14.998400 16.377300 -0.000001 -0.000001 1.174100 0.364848 -13.802100 6.456720 -0.000001 -0.000000 -1.045210 0.997832 -13.993200 12.994200 -0.242716 4.980390 -92.827800 9.132230 -72.712800 5.348090 -0.000007 -0.000001 -55.924400 -8.980190 1.539680 24.328600 0.000019 0.000005 10.620100 23.070400 -25.571300 22.291600 -0.000001 0.000005 4.710260 4.887100 9.634140 12.994500 -0.242716 -4.980390 94.321200 -7.868920 -61.104300 -5.348130 -0.000001 -0.000004 -22.423000 -52.859800 -50.215400 -24.328900 0.000322 -0.000009 -0.001047 -3.863270 -0.000028 -22.291500 -0.000108 -0.000004 58.001200 5.477190 -5.641460 -2.192480 -6.469440 -0.000000 -168.913000 -2.010400 1.664860 39.081100 -0.000007 -0.000012 -0.002918 0.013716 12.007100 40.985400 -0.000006 -0.000013 -4.477780 12.338300 -68.794600 11.754300 -0.000000 0.000003 -0.001924 0.195387 -8.649840 -2.192510 6.469440 -0.000001 -179.760000 11.559200 -175.957000 -39.081100 -0.002282 -0.040193 -0.010855 0.089069 9.055190 -40.985400 0.000008 0.000006 -7.735280 9.474930 -66.198200 -11.754300 -0.000006 -0.000006 -0.008502 0.259746 -6.023510
0.000000 0.000000 0.000000 0.000000 0.000000 -0.000000 -4.133660 92.939100 2.791560 86.419100 2.652660 0.401315 15.735700 0.000005 -0.000001 85.275400 87.024700 -92.759000 8.984550 -0.406207 -0.000000 -1.782890 0.131408 -14.961900 16.377300 -0.000001 -0.000001 1.221110 0.341688 -13.662900 6.456720 -0.000001 -0.000000 -0.922787 0.996483 -13.895700 12.994200 -0.242716 4.980390 -92.829600 9.118280 -72.677900 5.348090 -0.000007 -0.000001 -56.045300 -8.790490 1.507110 24.328600 0.000019 0.000005 10.626600 23.219400 -25.449800 22.291600 -0.000001 0.000005 4.655420 4.893430 9.508620 12.994500 -0.242716 -4.980390 94.287800 -7.840890 -61.207100 -5.348130 -0.000001 -0.000004 -22.177800 -52.862200 -49.743100 -24.328900 0.000322 -0.000009 -0.001038 -4.055850 -0.000029 -22.291500 -0.000108 -0.000004 58.054300 5.475060 -5.560570 -2.192480 -6.469440 -0.000000 -169.007000 -2.082660 1.732140 39.081100 -0.000007 -0.000012 -0.002199 0.010428 11.905500 40.985400 -0.000006 -0.000013 -4.382410 12.332100 -68.747700 11.754300 -0.000000 0.000003 -0.001873 0.194749 -8.675820 -2.192510 6.469440 -0.000001 -179.846000 11.442900 -175.966000 -39.081100 -0.002282 -0.040193 -0.010604 0.087309 9.074300 -40.985400 0.000008 0.000006 -7.794300 9.448230 -66.200300 -11.754300 -0.000006 -0.000006 -0.008756 0.261759 -5.941260
0.000000 0.000000 0.000000 0.000000 0.000000 -0.000000 -4.087700 92.935900 2.774050 86.406700 2.548310 0.429605 15.735700 0.000005 -0.000001 85.192900 87.035100 -92.631700 8.984550 -0.406207 -0.000000 -1.805490 0.122385 -14.872500 16.377300 -0.000001 -0.000001 1.326970 0.346590 -13.623800 6.456720 -0.000001 -0.000000 -0.876817 1.014870 -13.656700 12.994200 -0.242716 4.980390 -92.837700 9.131140 -72.654100 5.348090 -0.000007 -0.000001 -56.113500 -8.609560 1.515490 24.328600 0.000019 0.000005 10.558600 23.153400 -25.363600 22.291600 -0.000001 0.000005 4.626320 4.886760 9.641000 12.994500 -0.242716 -4.980390 94.277000 -7.823690 -61.215900 -5.348130 -0.000001 -0.000004 -22.241300 -52.817700 -49.664100 -24.328900 0.000322 -0.000009 -0.001038 -3.894160 -0.000028 -22.291500 -0.000108 -0.000004 57.828800 5.472410 -5.460850 -2.192480 -6.469440 -0.000000 -169.039000 -2.147540 1.713260 39.081100 -0.000007 -0.000012 -0.001316 0.006165 12.040100 40.985400 -0.000006 -0.000013 -4.283660 12.275400 -68.844900 11.754300 -0.000000 0.000003 -0.001921 0.195357 -8.651080 -2.192510 6.469440 -0.000001 -179.849000 11.345000 -176.005000 -39.081100 -0.002282 -0.040193 -0.010636 0.086706 9.156810 -40.985400 0.000008 0.000006 -7.722100 9.397390 -66.234000 -11.754300 -0.000006 -0.000006 -0.008582 0.260384 -5.997440
0.000000 0.000000 0.000000 0.000000 0.000000 -0.000000 -4.050410 92.933000 2.742570 86.429900 2.490700 0.515508 15.735700 0.000005 -0.000001 84.876400 87.009500 -92.283000 8.984550 -0.406207 -0.000000 -1.760640 0.079640 -14.808500 16.377300 -0.000001 -0.000001 1.396620 0.357992 -13.551900 6.456720 -0.000001 -0.000000 -0.845749 1.075700 -13.436600 12.994200 -0.242716 4.980390 -92.820100 9.070510 -72.647800 5.348090 -0.000007 -0.000001 -56.273700 -8.539250 1.465390 24.328600 0.000019 0.000005 10.570700 23.264700 -25.289300 22.291600 -0.000001 0.000005 4.631840 4.886180 9.652470 12.994500 -0.242716 -4.980390 94.250200 -7.787270 -61.256000 -5.348130 -0.000001 -0.000004 -22.006200 -52.719000 -49.380700 -24.328900 0.000322 -0.000009 -0.001042 -4.005190 -0.000028 -22.291500 -0.000108 -0.000004 57.632800 5.469780 -5.362210 -2.192480 -6.469440 -0.000000 -169.100000 -2.214780 1.771800 39.081100 -0.000007 -0.000012 0.001073 -0.005011 12.089300 40.985400 -0.000006 -0.000013 -4.089470 12.272100 -68.875600 11.754300 -0.000000 0.000003 -0.001780 0.193560 -8.724130 -2.192510 6.469440 -0.000001 -179.898000 11.239800 -176.013000 -39.081100 -0.002282 -0.040193 -0.010597 0.085137 9.297170 -40.985400 0.000008 0.000006 -7.657380 9.342850 -66.297600 -11.754300 -0.000006 -0.000006 -0.008493 0.259677 -6.026310
0.000000 0.000000 0.000000 0.000000 0.000000 -0.000000 -4.025900 92.937400 2.699350 86.463900 2.464460 0.576209 15.735700 0.000005 -0.000001 84.398700 86.989300 -91.782900 8.984550 -0.406207 -0.000000 -1.729000 0.022171 -14.764600 16.377300 -0.000001 -0.000001 1.433620 0.383205 -13.448600 6.456720 -0.000001 -0.000000 -0.766260 1.147080 -13.147100 12.994200 -0.242716 4.980390 -92.810100 9.021890 -72.618800 5.348090 -0.000007 -0.000001 -56.372500 -8.252950 1.453550 24.328600 0.000019 0.000005 10.558300 23.194000 -25.326200 22.291600 -0.000001 0.000005 4.824810 4.879100 9.792180 12.994500 -0.242716 -4.980390 94.216900 -7.761630 -61.367600 -5.348130 -0.000001 -0.000004 -21.829400 -52.745700 -49.054200 -24.328900 0.000322 -0.000009 -0.001040 -4.238440 -0.000030 -22.291500 -0.000108 -0.000004 57.303200 5.477140 -5.639850 -2.192480 -6.469440 -0.000000 -169.149000 -2.230380 1.835480 39.081100 -0.000007 -0.000012 0.001498 -0.007014 12.058900 40.985400 -0.000006 -0.000013 -4.062750 12.260600 -68.857400 11.754300 -0.000000 0.000003 -0.001783 0.193590 -8.722930 -2.192510 6.469440 -0.000001 -179.938000 11.141600 -176.024000 -39.081100 -0.002282 -0.040193 -0.010464 0.083474 9.390030 -40.985400 0.000008 0.000006 -7.584670 9.285840 -66.400700 -11.754300 -0.000006 -0.000006 -0.008804 0.262136 -5.925820
0.000000 0.000000 0.000000 0.000000 0.000000 -0.000000 -4.010260 92.931900 2.658580 86.440500 2.402410 0.627420 15.735700 0.000005 -0.000001 84.417100 86.958900 -91.760200 8.984550 -0.406207 -0.000000 -1.669520 0.010989 -14.682200 16.377300 -0.000001 -0.000001 1.478470 0.378530 -13.264000 6.456720 -0.000001 -0.000000 -0.776941 1.183190 -12.897600 12.994200 -0.242716 4.980390 -92.791300 8.951380 -72.601700 5.348090 -0.000007 -0.000001 -56.532300 -8.101470 1.335920 24.328600 0.000019 0.000005 10.612800 23.292200 -25.354600 22.291600 -0.000001 0.000005 4.789380 4.877510 9.823560 12.994500 -0.242716 -4.980390 94.189100 -7.728670 -61.425500 -5.348130 -0.000001 -0.000004 -21.589100 -52.762900 -48.720800 -24.328900 0.000322 -0.000009 -0.001036 -4.128330 -0.000029 -22.291500 -0.000108 -0.000004 57.122900 5.475150 -5.564270 -2.192480 -6.469440 -0.000000 -169.147000 -2.325770 1.803300 39.081100 -0.000007 -0.000012 0.004406 -0.020364 12.209800 40.985400 -0.000006 -0.000013 -3.846040 12.307100 -69.000900 11.754300 -0.000000 0.000003 -0.001788 0.193653 -8.720360 -2.192510 6.469440 -0.000001 -179.919000 11.034100 -176.071000 -39.081100 -0.002282 -0.040193 -0.010402 0.081985 9.514880 -40.985400 0.000008 0.000006 -7.593280 9.240130 -66.397600 -11.754300 -0.000006 -0.000006 -0.008495 0.259692 -6.025710
0.000000 0.000000 0.000000 0.000000 0.000000 -0.000000 -4.004640 92.938500 2.617520 86.452300 2.384950 0.675364 15.735700 0.000005 -0.000001 84.310300 86.943400 -91.627200 8.984550 -0.406207 -0.000000 -1.641360 -0.007297 -14.630100 16.377300 -0.000001 -0.000001 1.472440 0.296458 -12.924800 6.456720 -0.000001 -0.000000 -0.702444 1.141860 -12.727800 12.994200 -0.242716 4.980390 -92.758100 8.860860 -72.633100 5.348090 -0.000007 -0.000001 -56.674200 -7.861940 1.387840 24.328600 0.000019 0.000005 10.643800 23.156100 -25.544000 22.291600 -0.000001 0.000005 4.821730 4.879510 9.784140 12.994500 -0.242716 -4.980390 94.180600 -7.720680 -61.449800 -5.348130 -0.000001 -0.000004 -21.401100 -52.731800 -48.478000 -24.328900 0.000322 -0.000009 -0.001037 -4.170270 -0.000029 -22.291500 -0.000108 -0.000004 57.019800 5.473130 -5.488000 -2.192480 -6.469440 -0.000000 -169.167000 -2.275570 1.841860 39.081100 -0.000007 -0.000012 0.004513 -0.020903 12.184400 40.985400 -0.000006 -0.000013 -3.862240 12.229700 -68.995600 11.754300 -0.000000 0.000003 -0.001934 0.195521 -8.644410 -2.192510 6.469440 -0.000001 -179.936000 11.045300 -176.054000 -39.081100 -0.002282 -0.040193 -0.010470 0.082230 9.533400 -40.985400 0.000008 0.000006 -7.571210 9.240430 -66.428400 -11.754300 -0.000006 -0.000006 -0.008755 0.261756 -5.941350
